<svg width="22" height="10" viewBox="0 0 22 10" fill="none" xmlns="http://www.w3.org/2000/svg">
<g id="Group">
<path id="Body" opacity="0.35" fill-rule="evenodd" clip-rule="evenodd" d="M2.55313 0.118408H17.8816C18.9955 0.118408 19.8985 1.02141 19.8985 2.13532V7.37928C19.8985 8.49319 18.9955 9.39619 17.8816 9.39619H2.55313C1.43922 9.39619 0.536224 8.49319 0.536224 7.37928V2.13532C0.536224 1.02141 1.43922 0.118408 2.55313 0.118408ZM2.55314 0.925121C1.8848 0.925121 1.343 1.46692 1.343 2.13527V7.37923C1.343 8.04757 1.8848 8.58937 2.55314 8.58937H17.8816C18.55 8.58937 19.0918 8.04757 19.0918 7.37923V2.13527C19.0918 1.46692 18.55 0.925121 17.8816 0.925121H2.55314Z" fill="white"/>
<path id="Terminal" opacity="0.4" fill-rule="evenodd" clip-rule="evenodd" d="M20.7053 2.78052C21.4237 3.14774 21.9155 3.89504 21.9155 4.7572C21.9155 5.61937 21.4237 6.36667 20.7053 6.73389V2.78052Z" fill="white"/>
<path id="Reserve" fill-rule="evenodd" clip-rule="evenodd" d="M2.95651 1.73193H17.4783C17.9238 1.73193 18.285 2.09313 18.285 2.5387V6.97589C18.285 7.42146 17.9238 7.78266 17.4783 7.78266H2.95651C2.51095 7.78266 2.14975 7.42146 2.14975 6.97589V2.5387C2.14975 2.09313 2.51095 1.73193 2.95651 1.73193Z" fill="white"/>
</g>
</svg>
