<svg width="18" height="13" viewBox="0 0 18 13" fill="none" xmlns="http://www.w3.org/2000/svg">
<g id="icons/system/status bar/signal">
<path id="Empty Bar" opacity="0.25" fill-rule="evenodd" clip-rule="evenodd" d="M14.157 2.52173H14.9638C15.4093 2.52173 15.7705 2.88293 15.7705 3.32849V9.7826C15.7705 10.2282 15.4093 10.5894 14.9638 10.5894H14.157C13.7115 10.5894 13.3503 10.2282 13.3503 9.7826V3.32849C13.3503 2.88293 13.7115 2.52173 14.157 2.52173Z" fill="white"/>
<path id="Full Bars" fill-rule="evenodd" clip-rule="evenodd" d="M11.3334 4.13525H10.5266C10.081 4.13525 9.71982 4.49645 9.71982 4.94202V9.7826C9.71982 10.2282 10.081 10.5894 10.5266 10.5894H11.3334C11.7789 10.5894 12.1401 10.2282 12.1401 9.7826V4.94202C12.1401 4.49645 11.7789 4.13525 11.3334 4.13525ZM6.89615 5.74878H7.70292C8.14848 5.74878 8.50968 6.10998 8.50968 6.55554V9.7826C8.50968 10.2282 8.14848 10.5894 7.70292 10.5894H6.89615C6.45059 10.5894 6.08939 10.2282 6.08939 9.7826V6.55554C6.08939 6.10998 6.45059 5.74878 6.89615 5.74878ZM3.26572 6.95893H4.07248C4.51804 6.95893 4.87924 7.32013 4.87924 7.76569V9.7826C4.87924 10.2282 4.51804 10.5894 4.07248 10.5894H3.26572C2.82015 10.5894 2.45895 10.2282 2.45895 9.7826V7.76569C2.45895 7.32013 2.82015 6.95893 3.26572 6.95893Z" fill="white"/>
</g>
</svg>
