<svg width="13" height="13" viewBox="0 0 13 13" fill="none" xmlns="http://www.w3.org/2000/svg">
<g id="icons/system/status bar/wifi">
<path id="Wi&#226;&#128;&#147;Fi" fill-rule="evenodd" clip-rule="evenodd" d="M11.6818 4.55715C10.14 3.24021 8.19221 2.52173 6.15539 2.52173C4.11253 2.52173 2.15933 3.2445 0.615684 4.56855L0.484588 4.681C0.378572 4.77194 0.372486 4.93358 0.471366 5.03218L1.38054 5.93883C1.46879 6.02684 1.6099 6.03284 1.70535 5.95265L1.81798 5.85803C3.03366 4.83668 4.55997 4.28076 6.15539 4.28076C7.74537 4.28076 9.26681 4.83288 10.4807 5.84788L10.5933 5.94202C10.6887 6.02185 10.8295 6.01569 10.9176 5.92784L11.827 5.02106C11.926 4.92231 11.9197 4.7604 11.8134 4.66956L11.6818 4.55715ZM6.15539 5.32109C7.43882 5.32109 8.67109 5.74685 9.67493 6.53532L9.8168 6.64675C9.92991 6.73559 9.93984 6.90298 9.83804 7.00451L8.92577 7.91424C8.84139 7.99839 8.70788 8.00805 8.6122 7.93694L8.50099 7.85429C7.82299 7.3504 7.00545 7.08012 6.15539 7.08012C5.3001 7.08012 4.47778 7.35377 3.79753 7.86344L3.68621 7.94684C3.59053 8.01854 3.45652 8.0091 3.3719 7.9247L2.45996 7.0153C2.35837 6.91399 2.36801 6.74702 2.4806 6.65801L2.62166 6.54649C3.6279 5.75099 4.86577 5.32109 6.15539 5.32109ZM6.15538 8.12033C6.6713 8.12033 7.17261 8.2559 7.61432 8.51441L7.7933 8.61915C7.92898 8.69856 7.95284 8.8844 7.8416 8.99533L6.31352 10.5192C6.21966 10.6128 6.06748 10.6128 5.97362 10.5192L4.45537 9.00513C4.34461 8.89468 4.3677 8.70978 4.50223 8.62979L4.6792 8.52457C5.12497 8.25952 5.63264 8.12033 6.15538 8.12033Z" fill="white"/>
</g>
</svg>
